<?xml version="1.0" encoding="UTF-8"?>
<svg version="1.1" xmlns="http://www.w3.org/2000/svg" width="192" height="192">
<path d="M0 0 C2.18341574 0.00851187 4.36420341 -0.02037972 6.54736328 -0.05200195 C26.18907418 -0.14916493 47.20012874 6.5397496 62.31689453 19.44604492 C62.31689453 20.10604492 62.31689453 20.76604492 62.31689453 21.44604492 C62.87376953 21.69354492 63.43064453 21.94104492 64.00439453 22.19604492 C69.42644607 25.12688359 73.74113862 29.45718959 77.31689453 34.44604492 C77.31689453 35.10604492 77.31689453 35.76604492 77.31689453 36.44604492 C78.30689453 36.77604492 79.29689453 37.10604492 80.31689453 37.44604492 C93.58704777 53.0951612 98.88137955 74.11053967 98.76293945 94.12915039 C98.75442759 96.31256613 98.78331917 98.4933538 98.81494141 100.67651367 C98.91210439 120.31822458 92.22318985 141.32927913 79.31689453 156.44604492 C78.65689453 156.44604492 77.99689453 156.44604492 77.31689453 156.44604492 C77.06939453 157.00291992 76.82189453 157.55979492 76.56689453 158.13354492 C73.63605586 163.55559646 69.30574986 167.87028901 64.31689453 171.44604492 C63.65689453 171.44604492 62.99689453 171.44604492 62.31689453 171.44604492 C61.98689453 172.43604492 61.65689453 173.42604492 61.31689453 174.44604492 C45.66777825 187.71619816 24.65239978 193.01052994 4.63378906 192.89208984 C2.45037333 192.88357798 0.26958565 192.91246956 -1.91357422 192.9440918 C-21.55528512 193.04125478 -42.56633968 186.35234024 -57.68310547 173.44604492 C-57.68310547 172.78604492 -57.68310547 172.12604492 -57.68310547 171.44604492 C-58.23998047 171.19854492 -58.79685547 170.95104492 -59.37060547 170.69604492 C-64.79265701 167.76520625 -69.10734955 163.43490025 -72.68310547 158.44604492 C-72.68310547 157.78604492 -72.68310547 157.12604492 -72.68310547 156.44604492 C-73.67310547 156.11604492 -74.66310547 155.78604492 -75.68310547 155.44604492 C-88.9532587 139.79692864 -94.24759049 118.78155017 -94.12915039 98.76293945 C-94.12063852 96.57952372 -94.14953011 94.39873604 -94.18115234 92.21557617 C-94.27831533 72.57386527 -87.58940079 51.56281071 -74.68310547 36.44604492 C-74.02310547 36.44604492 -73.36310547 36.44604492 -72.68310547 36.44604492 C-72.43560547 35.88916992 -72.18810547 35.33229492 -71.93310547 34.75854492 C-69.0022668 29.33649338 -64.6719608 25.02180084 -59.68310547 21.44604492 C-59.02310547 21.44604492 -58.36310547 21.44604492 -57.68310547 21.44604492 C-57.18810547 19.96104492 -57.18810547 19.96104492 -56.68310547 18.44604492 C-41.03398919 5.17589169 -20.01861072 -0.11844009 0 0 Z " fill="#222222" transform="translate(93.68310546875,-0.446044921875)"/>
<path d="M0 0 C3.6812645 1.4955137 5.50737427 3.57531018 8 6.625 C12.99149191 12.35813261 18.51559038 16.07204967 25 20 C23.76448756 23.70653731 22.03334922 24.64915435 19 27 C17.69484822 29.61030357 17.85861288 31.54870289 17.83886719 34.47192383 C17.82925964 35.61683792 17.8196521 36.76175201 17.80975342 37.94136047 C17.8033786 39.80536751 17.8033786 39.80536751 17.796875 41.70703125 C17.78832489 43.61605476 17.78832489 43.61605476 17.77960205 45.56364441 C17.7701407 48.26129738 17.76324986 50.9588388 17.75976562 53.65649414 C17.7542882 57.10656434 17.7302768 60.55623841 17.70179367 64.00618458 C17.67864032 67.30227006 17.67671546 70.59837583 17.671875 73.89453125 C17.6595282 75.13112991 17.6471814 76.36772858 17.63446045 77.64179993 C17.63746155 78.7961705 17.64046265 79.95054108 17.64355469 81.13989258 C17.63990906 82.15312088 17.63626343 83.16634918 17.63250732 84.21028137 C18.06548315 87.49709719 18.98212011 89.38264811 21 92 C24.04279372 92.66680368 24.04279372 92.66680368 27 92 C27.99 90.515 27.99 90.515 29 89 C29.99 89 30.98 89 32 89 C31.41279381 92.88529692 30.25117945 95.69534474 28.27734375 99.08203125 C27.47006836 100.47905273 27.47006836 100.47905273 26.64648438 101.90429688 C26.08251953 102.86400391 25.51855469 103.82371094 24.9375 104.8125 C24.36966797 105.79154297 23.80183594 106.77058594 23.21679688 107.77929688 C21.81745173 110.18993348 20.41170071 112.5965851 19 115 C10.66620378 113.98195103 5.7020324 109.15218031 0.32421875 103.00390625 C-3.65859106 96.97682238 -4.48464651 91.67130967 -4.65625 84.60546875 C-4.68875854 83.69814499 -4.72126709 82.79082123 -4.75476074 81.85600281 C-4.85417997 78.90422009 -4.9302891 75.95262661 -5 73 C-5.03722168 71.50149506 -5.03722168 71.50149506 -5.07519531 69.97271729 C-5.27430138 61.67513788 -5.41820171 53.37673155 -5.55224609 45.07788086 C-5.60369757 41.96459443 -5.66089321 38.85145421 -5.71875 35.73828125 C-5.73232544 34.78641434 -5.74590088 33.83454742 -5.7598877 32.85383606 C-5.78496399 31.54427193 -5.78496399 31.54427193 -5.81054688 30.20825195 C-5.82307495 29.44108353 -5.83560303 28.6739151 -5.84851074 27.88349915 C-5.88903681 25.91020377 -5.88903681 25.91020377 -7 24 C-10.79588866 24.54226981 -12.47211993 26.20127563 -15 29 C-15.99 28.67 -16.98 28.34 -18 28 C-17.38841836 23.91621292 -15.23385791 21.19339333 -12.875 17.875 C-12.47410156 17.30749023 -12.07320313 16.73998047 -11.66015625 16.15527344 C-10.84052739 14.99543356 -10.01858786 13.83722309 -9.19433594 12.68066406 C-7.44367349 10.21713988 -5.72397734 7.73224123 -4 5.25 C-1.12765957 1.12765957 -1.12765957 1.12765957 0 0 Z " fill="#F0F0F0" transform="translate(89,58)"/>
<path d="M0 0 C3.25 2.0625 3.25 2.0625 5 5 C5.76190321 10.23808459 4.87111097 13.60361132 2 18 C-1.88174254 22.47828739 -5.25164311 26.14930949 -11 28 C-13.5625 28.125 -13.5625 28.125 -16 27 C-19.96155595 22.16381481 -20.68054815 16.64856602 -20.4609375 10.55859375 C-19.72060436 6.44911743 -18.06972388 4.78416817 -15 2 C-10.32370439 -1.11753041 -5.46994841 -0.70770222 0 0 Z " fill="#EFEFEF" transform="translate(106,20)"/>
</svg>
